<svg id="Layer_1" enable-background="new 0 0 70 70" height="512" viewBox="0 0 70 70" width="512" xmlns="http://www.w3.org/2000/svg"><path d="m46.5415039 40.0654297c4.2509766 0 8.5004883-1.6171875 11.7353516-4.8515625 6.4794922-6.4794922 6.4794922-17.0219727.0004883-23.5009766-6.4736328-6.4736328-17.0112305-6.46875-23.4907227.0107422-3.1313477 3.1308594-4.8554688 7.2998047-4.8554688 11.7397461 0 4.4394531 1.7246094 8.6088867 4.855957 11.7397461 3.241211 3.2416992 7.4985352 4.8623047 11.7543946 4.8623047zm-10.3408203-26.9277344c2.8520508-2.8515625 6.5966797-4.277832 10.3408203-4.277832 3.7387695 0 7.4770508 1.4223633 10.3217773 4.2670898 5.6992188 5.6992188 5.6992188 14.9731446-.0004882 20.6728516-5.6933594 5.6928711-14.9614258 5.6889648-20.6616211-.0107422-2.753418-2.753418-4.2700195-6.4204102-4.2700195-10.3256836s1.5161132-7.5722656 4.2695312-10.3256836z"/><path d="m7.1435547 66.2866211c1.1401367 1.140625 2.6381836 1.7104492 4.1362305 1.7104492s2.9960938-.5698242 4.1362305-1.7104492l15.2519531-15.2519531c1.1049805-1.1049805 1.7133789-2.5737305 1.7133789-4.1362305 0-1.1821899-.3492432-2.3096924-.9969482-3.2672119l2.7075195-2.7075195c3.6129761 2.5869141 7.9163208 4.0018921 12.4437256 4.0030518h.0058594c5.7270508 0 11.1132812-2.2314453 15.1650391-6.2836914 4.0581055-4.0581055 6.2929688-9.4487305 6.2929688-15.1796875s-2.2348635-11.1220704-6.2929689-15.1796876c-8.3647461-8.3647461-21.9790039-8.3603516-30.3486328.0102539-7.5101929 7.5101929-8.2542725 19.237915-2.277771 27.6117554l-2.7143555 2.7143555c-2.2737427-1.5307007-5.3902588-1.2963867-7.3999634.7124634l-15.2519531 15.2519531c-2.2802734 2.2807617-2.2802734 5.9921875 0 8.2729492zm25.628418-56.5786133c3.7973633-3.7973633 8.7832031-5.6958008 13.7695312-5.6958008 4.9804688 0 9.9609375 1.8955078 13.7509766 5.6855469 3.6801758 3.6801758 5.7070312 8.5688477 5.7070312 13.765625 0 5.1962891-2.0268555 10.0854492-5.7070312 13.765625-3.6743164 3.6743164-8.5576172 5.6977539-13.7509766 5.6977539-.0014648 0-.003418 0-.0053711 0-5.1962891-.0014648-10.0844727-2.0288086-13.7641602-5.7084961-7.5844726-7.5844726-7.5844726-19.9257812.0000001-27.5102539zm-1.4140625 28.9243164c.3693237.3693237.7614136.7063599 1.1520386 1.0452271l-2.4632568 2.4632568-2.1866455-2.1868896 2.4648438-2.4648438c.3350218.3866577.6657103.7759399 1.0330199 1.1432495zm-26.2299805 17.366211 15.2519531-15.2519532c.7504883-.7504883 1.7363281-1.1254883 2.7226562-1.1254883.9853516 0 1.9716797.3754883 2.722168 1.1254883l3.4291992 3.4296875c.7270508.7270508 1.1274414 1.6938477 1.1274414 2.722168s-.4003906 1.9951172-1.1274414 2.722168l-15.2519531 15.2519531c-1.5009766 1.5009766-3.9433594 1.5009766-5.4443359 0l-3.4296875-3.4291992c-1.5004883-1.5009766-1.5004883-3.9438477 0-5.4448242z"/></svg>